<?xml version="1.0" encoding="utf-8"?>
<!-- Generator: Adobe Illustrator 27.1.0, SVG Export Plug-In . SVG Version: 6.00 Build 0)  -->
<svg version="1.1" id="Capa_1" xmlns="http://www.w3.org/2000/svg" xmlns:xlink="http://www.w3.org/1999/xlink" x="0px" y="0px"
	 viewBox="0 0 36 36" style="enable-background:new 0 0 36 36;" xml:space="preserve">
<style type="text/css">
	.st0{fill:#224D9B;}
</style>
<g>
	<g>
		<g>
			<path class="st0" d="M18.6,16.8c0.2-0.2,0.4-0.5,0.6-0.7c0.7-0.6,1.4-0.9,2.3-0.9c0.5,0,1,0,1.5,0.2c1.1,0.3,1.7,1.1,2,2.1
				c0.2,0.8,0.3,1.6,0.3,2.4c0,1.7,0,3.5,0,5.2c0,0.2,0,0.2-0.2,0.2c-0.9,0-1.8,0-2.7,0c-0.2,0-0.2,0-0.2-0.2c0-1.7,0-3.3,0-5
				c0-0.4,0-0.8-0.1-1.2c-0.2-0.7-0.7-1.1-1.5-1.1c-1.1,0.1-1.6,0.6-1.8,1.7c0,0.3,0,0.5,0,0.8c0,1.6,0,3.2,0,4.8
				c0,0.2,0,0.2-0.2,0.2c-0.9,0-1.8,0-2.7,0c-0.1,0-0.2,0-0.2-0.2c0-3.2,0-6.4,0-9.6c0-0.2,0-0.2,0.2-0.2c0.9,0,1.7,0,2.6,0
				c0.2,0,0.2,0,0.2,0.2C18.6,16.1,18.6,16.5,18.6,16.8z"/>
			<path class="st0" d="M13.7,20.5c0,1.6,0,3.2,0,4.7c0,0.2,0,0.2-0.2,0.2c-0.9,0-1.8,0-2.7,0c-0.1,0-0.2,0-0.2-0.2
				c0-3.2,0-6.4,0-9.6c0-0.1,0-0.2,0.2-0.2c0.9,0,1.8,0,2.7,0c0.2,0,0.2,0.1,0.2,0.2C13.7,17.3,13.7,18.9,13.7,20.5z"/>
			<path class="st0" d="M14,12.3c0,1-0.8,1.8-1.8,1.8c-1,0-1.8-0.8-1.8-1.8c0-1,0.8-1.8,1.8-1.8C13.1,10.5,14,11.4,14,12.3z"/>
		</g>
	</g>
	<path class="st0" d="M24.7,30.9H11.3c-3.5,0-6.3-2.8-6.3-6.3V11.3c0-3.5,2.8-6.3,6.3-6.3h13.4c3.5,0,6.3,2.8,6.3,6.3v13.4
		C30.9,28.1,28.1,30.9,24.7,30.9z M11.3,6.9c-2.5,0-4.5,2-4.5,4.5v13.4c0,2.5,2,4.5,4.5,4.5h13.4c2.5,0,4.5-2,4.5-4.5V11.3
		c0-2.5-2-4.5-4.5-4.5H11.3z"/>
</g>
</svg>
