<?xml version="1.0" encoding="utf-8"?>
<!-- Generator: Adobe Illustrator 27.1.0, SVG Export Plug-In . SVG Version: 6.00 Build 0)  -->
<svg version="1.1" id="Capa_1" xmlns="http://www.w3.org/2000/svg" xmlns:xlink="http://www.w3.org/1999/xlink" x="0px" y="0px"
	 viewBox="0 0 36 36" style="enable-background:new 0 0 36 36;" xml:space="preserve">
<style type="text/css">
	.st0{fill:#224D9B;}
</style>
<g>
	<path class="st0" d="M28.3,33.2H7.7c-1.5,0-2.8-1.3-2.8-2.8V5.6c0-1.5,1.3-2.8,2.8-2.8h20.6c1.5,0,2.8,1.3,2.8,2.8v24.8
		C31.1,31.9,29.9,33.2,28.3,33.2z M7.7,4.8c-0.4,0-0.8,0.4-0.8,0.8v24.8c0,0.4,0.4,0.8,0.8,0.8h20.6c0.4,0,0.8-0.4,0.8-0.8V5.6
		c0-0.4-0.4-0.8-0.8-0.8H7.7z"/>
	<g>
		<path class="st0" d="M12.2,12.3c0.8,0,1.4,0.2,1.9,0.7c0.4,0.5,0.6,1.1,0.6,1.8v1.6c0,0.7-0.2,1.3-0.7,1.8
			c-0.5,0.5-1.1,0.8-1.8,0.8h-0.9v4H9.7V12.3H12.2z M13.2,14.9c0-0.3-0.1-0.5-0.3-0.7c-0.2-0.2-0.4-0.3-0.7-0.3h-1v3.4h1
			c0.3,0,0.5-0.1,0.7-0.3c0.2-0.2,0.3-0.4,0.3-0.7V14.9z"/>
		<path class="st0" d="M21.1,20.4c0,0.7-0.2,1.3-0.7,1.8S19.3,23,18.6,23H16V12.3h2.5c0.7,0,1.3,0.2,1.8,0.8
			c0.5,0.5,0.7,1.1,0.7,1.8V20.4z M17.6,21.4h1c0.3,0,0.5-0.1,0.6-0.3c0.2-0.2,0.3-0.4,0.3-0.7v-5.6c0-0.3-0.1-0.5-0.3-0.7
			c-0.2-0.2-0.4-0.3-0.6-0.3h-1V21.4z"/>
		<path class="st0" d="M24.1,23h-1.6V12.3h4.6v1.6h-3v2.9h2.2v1.6h-2.2V23z"/>
	</g>
</g>
</svg>
