<?xml version="1.0" encoding="utf-8"?>
<!-- Generator: Adobe Illustrator 25.4.1, SVG Export Plug-In . SVG Version: 6.00 Build 0)  -->
<svg version="1.1" id="Capa_1" xmlns="http://www.w3.org/2000/svg" xmlns:xlink="http://www.w3.org/1999/xlink" x="0px" y="0px"
	 viewBox="0 0 36 36" style="enable-background:new 0 0 36 36;" xml:space="preserve">
<style type="text/css">
	.st0{fill:#1a4d9c}
</style>
<path class="st0" d="M27.2,21.9c-0.9-0.9-2.3-0.9-3.2,0l-2.2,2.2c-0.1-0.1-0.3-0.2-0.4-0.2C19.9,23.1,18,22.1,16,20
	c-2-2-3.1-3.9-3.9-5.3c-0.1-0.1-0.2-0.3-0.2-0.4l1.5-1.5l0.7-0.7c0.9-0.9,0.9-2.4,0.1-3.2L9.8,4.4C8.9,3.6,7.4,3.6,6.5,4.5L5.3,5.7
	l0,0c-0.4,0.5-0.8,1.1-1,1.8C4.1,8.2,3.9,8.8,3.9,9.4c-0.6,4.8,1.6,9.2,7.6,15.2c8.3,8.3,14.9,7.6,15.2,7.6c0.6-0.1,1.2-0.2,1.8-0.5
	c0.7-0.3,1.3-0.6,1.8-1l0,0l1.3-1.2c0.9-0.9,0.9-2.4,0.1-3.2L27.2,21.9z"/>
</svg>
