<?xml version="1.0" encoding="utf-8"?>
<!-- Generator: Adobe Illustrator 25.4.1, SVG Export Plug-In . SVG Version: 6.00 Build 0)  -->
<svg version="1.1" id="Capa_1" xmlns="http://www.w3.org/2000/svg" xmlns:xlink="http://www.w3.org/1999/xlink" x="0px" y="0px"
	 viewBox="0 0 36 36" style="enable-background:new 0 0 36 36;" xml:space="preserve">
<style type="text/css">
	.st0{fill:#2978BC;}
</style>
<path class="st0" d="M25.8,21.3c-0.7-0.7-2-0.7-2.7,0.1l-1.9,1.9c-0.1-0.1-0.2-0.1-0.4-0.2c-1.2-0.7-2.8-1.6-4.5-3.3
	c-1.7-1.7-2.6-3.3-3.3-4.5c-0.1-0.1-0.1-0.2-0.2-0.4l1.3-1.3l0.6-0.6c0.8-0.8,0.8-2,0.1-2.7L11,6.5c-0.7-0.7-2-0.7-2.7,0.1l-1,1.1
	l0,0c-0.4,0.4-0.6,1-0.9,1.5c-0.2,0.5-0.3,1-0.4,1.5c-0.5,4.1,1.4,7.8,6.4,12.8c7,7,12.6,6.5,12.8,6.4c0.5-0.1,1-0.2,1.5-0.4
	c0.6-0.2,1.1-0.5,1.5-0.9l0,0l1.1-1c0.8-0.8,0.8-2,0-2.7L25.8,21.3z"/>
</svg>
