<?xml version="1.0" encoding="utf-8"?>
<!-- Generator: Adobe Illustrator 25.4.1, SVG Export Plug-In . SVG Version: 6.00 Build 0)  -->
<svg version="1.1" id="Capa_1" xmlns="http://www.w3.org/2000/svg" xmlns:xlink="http://www.w3.org/1999/xlink" x="0px" y="0px"
	 viewBox="0 0 36 36" style="enable-background:new 0 0 36 36;" xml:space="preserve">
<style type="text/css">
	.st0{fill:#2978BC;}
</style>
<g>
	<g>
		<path class="st0" d="M25.1,20.9c-0.3-0.1-2.3-1.1-2.7-1.3c-0.3-0.1-0.7-0.2-1,0.2c-0.3,0.4-1,1.2-1.2,1.5
			c-0.2,0.2-0.3,0.3-0.7,0.1c-0.1,0-1.9-0.8-3.1-1.9c-1.1-1-1.9-2.2-2.1-2.6c-0.2-0.3-0.1-0.4,0.2-0.6c0.1-0.1,0.7-0.8,0.7-0.9
			c0.1-0.1,0.3-0.5,0.3-0.5c0.2-0.3,0.1-0.6,0-0.8c-0.1-0.1-1.1-2.6-1.2-2.9c-0.3-0.7-0.6-0.7-0.9-0.7c-0.1,0-1.5,0-1.9,0.5
			l-0.1,0.1c-0.4,0.5-1.3,1.4-1.3,3.2c0,0.4,0.1,0.9,0.2,1.3c0.3,0.9,0.8,1.8,1.4,2.7c0,0,1,1.4,1.5,2c1.6,1.8,3.4,3.2,5.2,3.9
			c2.3,0.9,3.3,1.1,3.8,1.1c0.2,0,0.8-0.1,0.9-0.1c0.7-0.1,2.4-0.9,2.7-1.9c0.3-0.9,0.3-1.7,0.2-1.9C25.8,21.3,25.1,20.9,25.1,20.9z
			"/>
		<path class="st0" d="M18.3,1.6C9.7,1.6,2.6,8.3,2.2,16.8c0,0.2,0,0.5,0,0.7c0,2.8,0.8,5.6,2.2,8.1c0,0.1,0,0.1,0,0.2l-2.9,8.4
			c0,0.1,0.1,0.2,0.2,0.2l8.8-2.8c0.1,0,0.1,0,0.2,0c2.3,1.2,5,1.9,7.6,1.9c8.9,0,16.1-7.2,16.1-16c0-0.1,0-0.4,0-0.4
			C34.2,8.4,27.1,1.6,18.3,1.6z M18.3,30.5c-1.9,0-3.8-0.4-5.5-1.2c-0.5-0.2-1.4-0.8-1.7-0.9c-0.1,0-0.1,0-0.2,0l-4.4,1.4
			c-0.1,0-0.2-0.1-0.2-0.2l1.4-4.2c0-0.1,0-0.2,0-0.2c-0.1-0.1-0.2-0.3-0.3-0.4c-1.4-2.1-2.2-4.6-2.2-7.2c0-0.4,0-0.8,0.1-1.3
			C6,9.6,11.6,4.6,18.3,4.6c6.8,0,12.5,5.3,13,12c0,0.4,0,0.7,0,1C31.4,24.7,25.5,30.5,18.3,30.5z"/>
	</g>
</g>
</svg>
