<?xml version="1.0" encoding="utf-8"?>
<!-- Generator: Adobe Illustrator 25.4.1, SVG Export Plug-In . SVG Version: 6.00 Build 0)  -->
<svg version="1.1" id="Capa_1" xmlns="http://www.w3.org/2000/svg" xmlns:xlink="http://www.w3.org/1999/xlink" x="0px" y="0px"
	 viewBox="0 0 36 36" style="enable-background:new 0 0 36 36;" xml:space="preserve">
<style type="text/css">
	.st0{fill:#2978BC;}
</style>
<path class="st0" d="M18,2.1C9.2,2.1,2.1,9.2,2.1,18c0,8.8,7.2,15.9,15.9,15.9S33.9,26.8,33.9,18C33.9,9.2,26.8,2.1,18,2.1z
	 M13.3,4.7c-1.1,1.4-1.9,3.1-2.4,4.8H6.8C8.4,7.4,10.7,5.7,13.3,4.7z M5.6,11.4h4.8c-0.4,1.8-0.7,3.7-0.7,5.7H4
	C4.1,15,4.7,13.1,5.6,11.4z M4,18.9h5.6c0.1,2,0.3,3.9,0.7,5.6H5.5C4.6,22.8,4.1,20.9,4,18.9z M6.7,26.4h4.1
	c0.5,1.7,1.3,3.4,2.4,4.8C10.6,30.3,8.4,28.6,6.7,26.4z M17.1,31.9c-2.1-0.7-3.5-3.4-4.3-5.5h4.3V31.9z M17.1,24.5h-4.8
	c-0.4-1.7-0.7-3.6-0.8-5.6h5.6V24.5z M17.1,17.1h-5.6c0.1-2,0.3-3.9,0.8-5.7h4.8V17.1z M17.1,9.5h-4.2c0.7-2.1,2.2-4.7,4.2-5.4V9.5z
	 M29.2,9.5h-4.1c-0.5-1.7-1.3-3.4-2.4-4.8C25.3,5.7,27.6,7.4,29.2,9.5z M18.9,4.1c2.1,0.7,3.5,3.4,4.2,5.4h-4.2V4.1z M18.9,11.4h4.8
	c0.4,1.7,0.7,3.7,0.8,5.7h-5.6V11.4z M18.9,18.9h5.6c-0.1,2-0.3,3.9-0.8,5.6h-4.8V18.9z M18.9,31.9v-5.5h4.3
	C22.5,28.5,21,31.2,18.9,31.9z M22.7,31.3c1.1-1.4,1.9-3.2,2.4-4.8h4.1C27.6,28.6,25.4,30.3,22.7,31.3z M30.5,24.5h-4.8
	c0.4-1.8,0.6-3.6,0.7-5.6H32C31.9,20.9,31.4,22.8,30.5,24.5z M32,17.1h-5.6c-0.1-2-0.3-3.9-0.7-5.7h4.8C31.3,13.1,31.9,15,32,17.1z"
	/>
</svg>
