<?xml version="1.0" encoding="utf-8"?>
<!-- Generator: Adobe Illustrator 27.1.0, SVG Export Plug-In . SVG Version: 6.00 Build 0)  -->
<svg version="1.1" id="Capa_1" xmlns="http://www.w3.org/2000/svg" xmlns:xlink="http://www.w3.org/1999/xlink" x="0px" y="0px"
	 viewBox="0 0 36 36" style="enable-background:new 0 0 36 36;" xml:space="preserve">
<style type="text/css">
	.st0{fill:#16b7db;}
</style>
<g>
	<g>
		<path class="st0" d="M18,0.6c-7,0-12.6,5.7-12.6,12.6c0,8.6,11.3,21.3,11.8,21.9c0.5,0.5,1.2,0.5,1.7,0s11.8-13.2,11.8-21.9
			C30.6,6.2,25,0.6,18,0.6z M18,32.6C14.2,28,7.6,19.1,7.6,13.2C7.6,7.5,12.3,2.8,18,2.8s10.4,4.6,10.4,10.4
			C28.4,19.1,21.8,28,18,32.6z"/>
		<path class="st0" d="M18,6.8c-3.5,0-6.4,2.8-6.4,6.4c0,3.5,2.8,6.4,6.4,6.4s6.4-2.8,6.4-6.4C24.4,9.7,21.5,6.8,18,6.8z M18,17.3
			c-2.2,0-4.1-1.8-4.1-4.1s1.8-4.1,4.1-4.1c2.2,0,4.1,1.8,4.1,4.1S20.2,17.3,18,17.3z"/>
	</g>
</g>
</svg>
