<?xml version="1.0" encoding="utf-8"?>
<!-- Generator: Adobe Illustrator 25.4.1, SVG Export Plug-In . SVG Version: 6.00 Build 0)  -->
<svg version="1.1" id="Capa_1" xmlns="http://www.w3.org/2000/svg" xmlns:xlink="http://www.w3.org/1999/xlink" x="0px" y="0px"
	 viewBox="0 0 36 36" style="enable-background:new 0 0 36 36;" xml:space="preserve">
<style type="text/css">
	.st0{fill:#16b7db;}
</style>
<g>
	<g>
		<path class="st0" d="M18,26.1c4.5,0,8.1-3.6,8.1-8.1S22.5,9.9,18,9.9S9.9,13.5,9.9,18S13.5,26.1,18,26.1z M18,11.9
			c3.4,0,6.1,2.7,6.1,6.1c0,3.4-2.7,6.1-6.1,6.1c-3.4,0-6.1-2.7-6.1-6.1C11.9,14.6,14.6,11.9,18,11.9z"/>
		<path class="st0" d="M12.3,32.1h11.3c5,0,9.1-4.1,9.1-9.1V13c0-5-4.1-9.1-9.1-9.1H12.3c-5,0-9.1,4.1-9.1,9.1v10
			C3.2,28,7.3,32.1,12.3,32.1z M5.2,13c0-3.9,3.2-7.1,7.1-7.1h11.3c3.9,0,7.1,3.2,7.1,7.1v10c0,3.9-3.2,7.1-7.1,7.1H12.3
			c-3.9,0-7.1-3.2-7.1-7.1V13z"/>
		<path class="st0" d="M26,11.8c0.9,0,1.7-0.8,1.7-1.7c0-0.9-0.8-1.7-1.7-1.7c-0.9,0-1.7,0.8-1.7,1.7C24.3,11.1,25.1,11.8,26,11.8z"
			/>
	</g>
</g>
</svg>
