<?xml version="1.0" encoding="utf-8"?>
<!-- Generator: Adobe Illustrator 27.1.0, SVG Export Plug-In . SVG Version: 6.00 Build 0)  -->
<svg version="1.1" id="Capa_1" xmlns="http://www.w3.org/2000/svg" xmlns:xlink="http://www.w3.org/1999/xlink" x="0px" y="0px"
	 viewBox="0 0 36 36" style="enable-background:new 0 0 36 36;" xml:space="preserve">
<style type="text/css">
	.st0{fill:#16b7db;}
</style>
<g>
	<g>
		<g>
			<path class="st0" d="M24.4,20.6c-0.2-0.1-2.1-1-2.4-1.1s-0.6-0.2-0.9,0.2C20.9,20,20.2,20.8,20,21s-0.3,0.2-0.6,0.1
				c-0.1,0-1.7-0.7-2.8-1.7c-1-0.9-1.7-1.9-1.9-2.4c-0.2-0.3-0.1-0.4,0.1-0.6c0.1-0.1,0.6-0.7,0.7-0.8c0.1-0.1,0.2-0.4,0.2-0.4
				c0.1-0.3,0.1-0.5,0-0.7c-0.1-0.1-1-2.4-1.1-2.6c-0.3-0.6-0.5-0.7-0.8-0.6c-0.1,0-1.4,0-1.8,0.4v0.2c-0.4,0.4-1.2,1.3-1.2,2.9
				c0,0.4,0.1,0.8,0.2,1.2c0.2,0.8,0.7,1.7,1.3,2.4c0,0,0.9,1.3,1.4,1.8c1.4,1.6,3,2.8,4.7,3.5c2.1,0.8,3,1,3.5,1
				c0.2,0,0.7-0.1,0.8-0.1c0.6-0.1,2.1-0.8,2.5-1.7c0.3-0.8,0.3-1.6,0.2-1.7C25.1,20.9,24.4,20.6,24.4,20.6z"/>
			<path class="st0" d="M18.3,3.2c-7.8,0-14.1,6-14.5,13.7c0,0.2,0,0.4,0,0.6c0,2.6,0.7,5.1,2,7.2c0,0.1,0,0.1,0,0.2l-2.6,7.6
				c0,0.1,0.1,0.2,0.2,0.2l7.9-2.5c0.1,0,0.1,0,0.2,0c2.1,1.1,4.5,1.7,6.8,1.7c8,0,14.5-6.4,14.5-14.4c0-0.1,0-0.4,0-0.4
				C32.6,9.4,26.2,3.2,18.3,3.2z M18.3,29.3c-1.7,0-3.4-0.4-5-1.1c-0.4-0.2-1.3-0.7-1.5-0.8c-0.1,0-0.1,0-0.2,0l-4,1.3
				c-0.1,0-0.2-0.1-0.1-0.1l1.3-3.8c0-0.1,0-0.1,0-0.2c-0.1-0.1-0.2-0.3-0.3-0.4c-1.3-1.9-2-4.1-2-6.5c0-0.4,0-0.7,0.1-1.1
				c0.6-6,5.6-10.5,11.7-10.5S29.5,10.8,30,16.8c0,0.4,0,0.6,0,0.9C30,24,24.8,29.3,18.3,29.3z"/>
		</g>
	</g>
</g>
</svg>
