<?xml version="1.0" encoding="utf-8"?>
<!-- Generator: Adobe Illustrator 27.1.0, SVG Export Plug-In . SVG Version: 6.00 Build 0)  -->
<svg version="1.1" id="Capa_1" xmlns="http://www.w3.org/2000/svg" xmlns:xlink="http://www.w3.org/1999/xlink" x="0px" y="0px"
	 viewBox="0 0 36 36" style="enable-background:new 0 0 36 36;" xml:space="preserve">
<style type="text/css">
	.st0{fill:#16b7db;}
</style>
<g>
	<g>
		<g>
			<path class="st0" d="M31.8,30.6H4.2c-1.8,0-3.2-1.5-3.2-3.2V8.6c0-1.8,1.5-3.2,3.2-3.2h27.5c1.8,0,3.2,1.5,3.2,3.2v18.8
				C35,29.2,33.5,30.6,31.8,30.6z M4.2,7.9c-0.4,0-0.7,0.3-0.7,0.7v18.8c0,0.4,0.3,0.7,0.7,0.7h27.5c0.4,0,0.7-0.3,0.7-0.7V8.6
				c0-0.4-0.3-0.7-0.7-0.7C31.7,7.9,4.2,7.9,4.2,7.9z"/>
			<rect x="8.3" y="13.5" class="st0" width="19.3" height="2.5"/>
			<rect x="8.3" y="19.8" class="st0" width="19.3" height="2.5"/>
		</g>
	</g>
</g>
</svg>
