<?xml version="1.0" encoding="utf-8"?>
<!-- Generator: Adobe Illustrator 27.1.0, SVG Export Plug-In . SVG Version: 6.00 Build 0)  -->
<svg version="1.1" id="Capa_1" xmlns="http://www.w3.org/2000/svg" xmlns:xlink="http://www.w3.org/1999/xlink" x="0px" y="0px"
	 viewBox="0 0 36 36" style="enable-background:new 0 0 36 36;" xml:space="preserve">
<style type="text/css">
	.st0{fill:#16b7db;}
</style>
<path class="st0" d="M6.7,32.7c-0.1,0-0.2,0-0.3,0H6.2c-1.1,0-2-0.8-2-1.9c0-0.5,0.2-0.9,0.5-1.2l0,0c0.1-0.1,0.3-0.3,0.4-0.3
	c1.2-1,2-1.9,2.5-2.9c-3.8-2.4-6-6.1-6-10c0-7.1,7.3-13,16.3-13s16.3,5.8,16.3,13c0,7.1-7.3,13-16.3,13c-0.8,0-1.5,0-2.3-0.1
	C12.7,32.1,9,32.7,6.7,32.7z M18,6.1c-7.5,0-13.5,4.6-13.5,10.2c0,3.2,2.1,6.3,5.6,8.2L11,25l-0.2,1c-0.3,1.3-1,2.5-2,3.7
	c1.7-0.3,3.7-1.1,5.4-3l0.5-0.6l0.8,0.1c0.9,0.1,1.8,0.2,2.7,0.2c7.5,0,13.5-4.6,13.5-10.2C31.5,10.7,25.5,6.1,18,6.1z"/>
</svg>
