<?xml version="1.0" encoding="utf-8"?>
<!-- Generator: Adobe Illustrator 27.1.0, SVG Export Plug-In . SVG Version: 6.00 Build 0)  -->
<svg version="1.1" id="Capa_1" xmlns="http://www.w3.org/2000/svg" xmlns:xlink="http://www.w3.org/1999/xlink" x="0px" y="0px"
	 viewBox="0 0 124.6 32.5" style="enable-background:new 0 0 124.6 32.5;" xml:space="preserve">
<style type="text/css">
	.st0{fill:#B2B1B1;}
</style>
<g>
	<g>
		<g>
			<path class="st0" d="M19.8,17.6c0,3.4-2.3,5.6-5.4,5.6c-1.4,0-2.6-0.5-3.4-1.4V23H8V8.1h3.1v5.2c0.8-0.9,1.9-1.3,3.3-1.3
				C17.5,12.1,19.8,14.2,19.8,17.6z M16.6,17.6c0-1.9-1.2-3-2.8-3s-2.8,1.1-2.8,3c0,1.9,1.2,3,2.8,3S16.6,19.5,16.6,17.6z"/>
			<path class="st0" d="M32.3,12.2l-4.9,11.5c-1,2.6-2.5,3.4-4.5,3.4c-1.1,0-2.3-0.4-3-1l1.1-2.2c0.5,0.4,1.1,0.7,1.8,0.7
				c0.9,0,1.3-0.4,1.8-1.3l0-0.1L20,12.2h3.2l3,7.3l3.1-7.3H32.3z"/>
		</g>
		<g>
			<g>
				<g>
					<polygon class="st0" points="114.9,14 116.4,14 115.4,15.2 					"/>
				</g>
				<g>
					<polygon class="st0" points="115.5,18.4 116.6,19.4 115.1,19.6 					"/>
				</g>
				<g>
					<polygon class="st0" points="113.8,21.9 114.3,23.3 112.9,22.7 					"/>
				</g>
				<g>
					<polygon class="st0" points="105.1,16.9 106.5,17.5 105.1,18.1 					"/>
				</g>
				<g>
					<polygon class="st0" points="104.6,22 103.2,22.5 103.8,21.1 					"/>
				</g>
				<g>
					<polygon class="st0" points="113.4,17.5 111.9,17.1 113.1,16.2 					"/>
				</g>
				<g>
					<polygon class="st0" points="110.7,21.2 110.7,19.6 111.9,20.6 					"/>
				</g>
				<g>
					<polygon class="st0" points="107.2,21.3 108.3,20.2 108.3,21.7 					"/>
				</g>
				<g>
					<polygon class="st0" points="103.5,14 102,14 103,15.2 					"/>
				</g>
			</g>
			<g>
				<g>
					<path class="st0" d="M53.8,6.4C53.2,6.1,52.5,6,51.7,6h-0.4l-4.7,13.2L41.9,6h-0.4c-0.8,0-1.6,0.1-2.2,0.4l-0.5,0.2l3.6,9.9
						c1.7,4.8,2.4,6.3,3,7.1l0.1,0.2l0.2,0.1c0.2,0.1,0.5,0.1,0.8,0.1c0.3,0,0.5,0,0.8-0.1l0.2-0.1l0.1-0.2c0.6-0.9,1.3-2.3,3-7.1
						l3.6-9.9L53.8,6.4z"/>
					<path class="st0" d="M67.1,20l-0.5,0.2c-1.4,0.5-2.7,0.8-3.9,0.8c-3.7,0-6.2-2.4-6.2-6c0-3.6,2.5-6,6.3-6
						c1.2,0,2.4,0.2,3.8,0.7l0.5,0.2l0.2-0.5c0.3-0.5,0.4-1.2,0.4-2V7l-0.4-0.1C65.7,6.3,64.2,6,62.7,6c-5.5,0-9.4,3.7-9.4,9
						c0,5.3,3.9,9,9.4,9c1.5,0,3.1-0.3,4.7-0.9l0.4-0.1v-0.4c0-0.8-0.1-1.5-0.4-2L67.1,20z"/>
					<path class="st0" d="M74.6,10.8c-1.5,0-3,0.2-4.3,0.6l-0.4,0.1V12c0,0.7,0.1,1.3,0.4,1.8l0.2,0.4l0.5-0.1
						c1.3-0.3,2.4-0.5,3.5-0.5c2.4,0,2.9,0.7,2.9,2.1v0.2c-0.8-0.1-1.7-0.1-2.4-0.1c-4,0-6,1.4-6,4.2c0,1.8,0.9,4,5.4,4
						c1.5,0,2.9-0.2,3.9-0.6c1.4-0.6,2-1.5,2-3v-4.8C80.2,12.4,78.3,10.8,74.6,10.8z M77.2,18.6v1.3c0,0.6-0.1,0.8-0.6,1
						c-0.7,0.3-1.8,0.4-2.6,0.4c-1.9,0-2.2-0.6-2.2-1.3c0-0.5,0-1.5,3.1-1.5C75.7,18.4,76.5,18.5,77.2,18.6z"/>
					<path class="st0" d="M89.7,11.6v-0.5L89.3,11c-0.5-0.1-1.2-0.2-1.8-0.2c-1.1,0-2.4,0.2-3.4,0.6c-1.4,0.6-2,1.5-2,3v9.5h0.6
						c0.8,0,1.5-0.1,2.1-0.4l0.3-0.2v-8.1c0-0.8,0.2-1.1,0.7-1.2c0.4-0.2,1.2-0.3,1.8-0.3c0.3,0,0.8,0,1.2,0.1l0.4,0l0.2-0.4
						C89.6,12.9,89.7,12.3,89.7,11.6z"/>
					<path class="st0" d="M98.5,5.9L98.2,6v5.4c-1.1-0.5-2.3-0.5-2.8-0.5c-3.6,0-6.1,2.7-6.1,6.6c0,3.9,2.5,6.6,6.3,6.6
						c1.2,0,2.6-0.2,3.6-0.6c1.4-0.6,2-1.5,2-3V5.4h-0.6C99.8,5.4,99.1,5.6,98.5,5.9z M95.7,21.1c-2.2,0-3.5-1.4-3.5-3.7
						c0-2.3,1.3-3.7,3.4-3.7c0.7,0,1.6,0.2,2.1,0.4c0.5,0.2,0.6,0.4,0.6,0.7v5.1c0,0.6-0.1,0.8-0.6,1C97.1,21,96.4,21.1,95.7,21.1z"
						/>
					<path class="st0" d="M113.4,12.3c-0.7,0.8-1.7,1.4-2.8,1.7c1.4,0.5,2.3,1.9,2.3,3.4c0,2.1-1.6,3.7-3.6,3.7
						c-2,0-3.6-1.6-3.6-3.7c0-1.6,0.9-2.9,2.3-3.4c-1.1-0.3-2.1-0.9-2.8-1.7c-1.5,1.2-2.4,3-2.4,5.1c0,3.7,2.9,6.6,6.6,6.6
						c3.7,0,6.6-2.9,6.6-6.6C115.8,15.3,114.9,13.5,113.4,12.3z"/>
				</g>
				<g>
					<g>
						<g>
							<path class="st0" d="M53.8,6.4C53.2,6.1,52.5,6,51.7,6h-0.4l-2.9,8c1,0.1,2,0.3,3,0.4l2.8-7.8L53.8,6.4z"/>
							<path class="st0" d="M41.9,6h-0.4c-0.8,0-1.6,0.1-2.2,0.4l-0.5,0.2l2.2,5.9c1.1,0.3,2.3,0.5,3.5,0.8L41.9,6z"/>
							<path class="st0" d="M62.8,8.9c1.2,0,2.4,0.2,3.8,0.7l0.5,0.2l0.2-0.5c0.3-0.5,0.4-1.2,0.4-2V7l-0.4-0.1
								C65.7,6.3,64.2,6,62.7,6c-5.4,0-9.2,3.5-9.4,8.6c1,0.1,2,0.2,3.1,0.3C56.5,11.3,59,8.9,62.8,8.9z"/>
							<path class="st0" d="M74.6,10.8c-1.5,0-3,0.2-4.3,0.6l-0.4,0.1V12c0,0.7,0.1,1.3,0.4,1.8l0.2,0.4l0.5-0.1
								c1.3-0.3,2.4-0.5,3.5-0.5c2,0,2.7,0.5,2.8,1.4c1,0,2-0.1,3-0.2C79.9,12.2,78.1,10.8,74.6,10.8z"/>
							<path class="st0" d="M85.7,14c0.4-0.2,1.2-0.3,1.8-0.3c0.3,0,0.8,0,1.2,0.1l0.4,0l0.2-0.4c0.2-0.5,0.4-1.2,0.4-1.9v-0.5
								L89.3,11c-0.5-0.1-1.2-0.2-1.8-0.2c-1.1,0-2.4,0.2-3.4,0.6c-1.4,0.6-2,1.5-2,3v0.3c1.1-0.1,2.1-0.2,3.1-0.3
								C85.3,14.3,85.5,14.1,85.7,14z"/>
							<path class="st0" d="M101.2,5.4h-0.6c-0.8,0-1.5,0.1-2.1,0.4L98.2,6v5.4c-1.1-0.5-2.3-0.5-2.8-0.5c-2.4,0-4.3,1.2-5.3,3.1
								c4.7-0.7,8.6-1.7,11.1-2.8V5.4z"/>
						</g>
					</g>
				</g>
			</g>
			<path class="st0" d="M105.2,8.6c0,1,0.4,1.9,1,2.6c0.1,0.1,0.2,0.2,0.3,0.3c0,0,0.1,0,0.1,0.1c0.1,0.1,0.1,0.1,0.2,0.2
				c0.2,0.2,0.4,0.3,0.7,0.5c0.2,0.1,0.5,0.2,0.8,0.3c0.4,0.1,0.8,0.2,1.3,0.2c1.1,0,2.2-0.4,2.9-1.2c0,0,0,0,0,0c0,0,0,0,0,0
				c0.8-0.8,1.2-1.8,1.2-3c-1.1-0.4-2.6-0.9-4.2-0.9C107.8,7.7,106.3,8.3,105.2,8.6z"/>
			<g>
				<g>
					<path class="st0" d="M105.2,8.6c0,0.4,0.1,0.7,0.1,1c0.2-0.1,0.4-0.2,0.7-0.3c2.2-0.9,6.1-0.3,7.6-0.8
						c-1.1-0.4-2.5-0.9-4.1-0.9C107.8,7.7,106.3,8.3,105.2,8.6z"/>
				</g>
			</g>
			<g>
				<g>
					<polygon class="st0" points="107.7,16.7 107,15.6 108.3,15.9 					"/>
				</g>
				<g>
					<polygon class="st0" points="108.4,18.7 107.3,19.2 107.7,18 					"/>
				</g>
				<g>
					<polygon class="st0" points="110,16.1 111.2,15.6 110.8,16.8 					"/>
				</g>
				<circle class="st0" cx="109.2" cy="17.3" r="2.1"/>
			</g>
		</g>
	</g>
</g>
</svg>
