<?xml version="1.0" encoding="utf-8"?>
<!-- Generator: Adobe Illustrator 25.4.1, SVG Export Plug-In . SVG Version: 6.00 Build 0)  -->
<svg version="1.1" xmlns="http://www.w3.org/2000/svg" xmlns:xlink="http://www.w3.org/1999/xlink" x="0px" y="0px"
	 viewBox="0 0 321.1 133" style="enable-background:new 0 0 321.1 133;" xml:space="preserve">
<style type="text/css">
	.st0{fill:#FFFFFF;}
	.st1{fill:#8DD0E0;}
	.st2{fill:#63C4DE;}
</style>
<g id="Capa_2">
</g>
<g id="Capa_1">
	<g>
		<g>
			<g>
				<g>
					<path class="st0" d="M190.9,54.2h-10.5v-5.8h30.1v5.8h-11V84h-8.7L190.9,54.2L190.9,54.2z"/>
					<path class="st0" d="M235.3,84h-6.6v-4h-0.1c-2.1,2.6-5.2,4.3-8.8,4.3c-6.4,0-9.2-4.5-9.2-10.6v-17h7v14.4
						c0,3.3,0.1,7.7,4.6,7.7c5.1,0,6.2-5.5,6.2-8.9V56.7h7L235.3,84L235.3,84z"/>
					<path class="st0" d="M240.9,56.7h6.2v6.1h0.1c0.3-2.5,3.2-6.7,7.4-6.7c0.7,0,1.4,0,2.1,0.2v7.1c-0.6-0.4-1.9-0.6-3.1-0.6
						c-5.7,0-5.7,7.1-5.7,11V84h-7V56.7z"/>
					<path class="st0" d="M262.5,58.1c2.7-1.3,6.4-2,9.4-2c8.2,0,11.6,3.4,11.6,11.4V71c0,2.7,0,4.8,0.1,6.7c0.1,2,0.2,3.9,0.3,6.3
						h-6.2c-0.3-1.7-0.3-3.5-0.3-4.3h-0.1c-1.6,3-5.1,4.7-8.3,4.7c-4.8,0-9.4-2.9-9.4-8c0-4,1.9-6.4,4.6-7.7
						c2.7-1.3,6.1-1.6,9.1-1.6h3.9c0-4.3-1.9-5.8-6.1-5.8c-3,0-6,1.2-8.3,2.9L262.5,58.1z M270.7,79.1c2.1,0,3.8-0.9,4.9-2.4
						s1.5-3.5,1.5-5.5h-3c-3.1,0-7.8,0.5-7.8,4.7C266.3,78.1,268.2,79.1,270.7,79.1z"/>
					<path class="st0" d="M289.6,56.6h6.2v6.2h0.1c0.3-2.5,3.2-6.7,7.4-6.7c0.7,0,1.4,0,2.6,0.2v7.1c-1.1-0.4-2.3-0.6-3.6-0.6
						c-5.7,0-5.7,7.1-5.7,11V84h-7V56.6z"/>
				</g>
				<g>
					<path class="st0" d="M190.9,54.2h-10.5v-5.8h30.1v5.8h-11V84h-8.7L190.9,54.2L190.9,54.2z"/>
					<path class="st0" d="M235.3,84h-6.6v-4h-0.1c-2.1,2.6-5.2,4.3-8.8,4.3c-6.4,0-9.2-4.5-9.2-10.6v-17h7v14.4
						c0,3.3,0.1,7.7,4.6,7.7c5.1,0,6.2-5.5,6.2-8.9V56.7h7L235.3,84L235.3,84z"/>
					<path class="st0" d="M240.9,56.7h6.2v6.1h0.1c0.3-2.5,3.2-6.7,7.4-6.7c0.7,0,1.4,0,2.1,0.2v7.1c-0.6-0.4-1.9-0.6-3.1-0.6
						c-5.7,0-5.7,7.1-5.7,11V84h-7V56.7z"/>
					<path class="st0" d="M262.5,58.1c2.7-1.3,6.4-2,9.4-2c8.2,0,11.6,3.4,11.6,11.4V71c0,2.7,0,4.8,0.1,6.7c0.1,2,0.2,3.9,0.3,6.3
						h-6.2c-0.3-1.7-0.3-3.5-0.3-4.3h-0.1c-1.6,3-5.1,4.7-8.3,4.7c-4.8,0-9.4-2.9-9.4-8c0-4,1.9-6.4,4.6-7.7
						c2.7-1.3,6.1-1.6,9.1-1.6h3.9c0-4.3-1.9-5.8-6.1-5.8c-3,0-6,1.2-8.3,2.9L262.5,58.1z M270.7,79.1c2.1,0,3.8-0.9,4.9-2.4
						s1.5-3.5,1.5-5.5h-3c-3.1,0-7.8,0.5-7.8,4.7C266.3,78.1,268.2,79.1,270.7,79.1z"/>
					<path class="st0" d="M289.6,56.6h6.2v6.2h0.1c0.3-2.5,3.2-6.7,7.4-6.7c0.7,0,1.4,0,2.6,0.2v7.1c-1.1-0.4-2.3-0.6-3.6-0.6
						c-5.7,0-5.7,7.1-5.7,11V84h-7V56.6z"/>
				</g>
			</g>
			<path class="st0" d="M133.2,48.5c-1.3,1.4-2.6,2.8-4,4.1c-4.6,4.6-10.6,8.7-15.1,12.2h57.2V48.5H133.2z"/>
			<path class="st0" d="M171.4,84.1V67.7h-35.5c6.2,4.2,12.9,11.4,16.4,16.3L171.4,84.1L171.4,84.1z"/>
			<path class="st0" d="M152.3,45.9V24H152c-3,6.3-8.9,14.2-16.2,21.9H152.3z"/>
		</g>
		<g>
			<path class="st1" d="M214.1,95v13.9h-1.7v-1.6c-0.8,1.1-2.1,1.7-3.5,1.7c-2.9,0-5-2-5-5.1s2.1-5,5-5c1.4,0,2.6,0.5,3.5,1.6V95
				H214.1z M212.3,103.9c0-2.1-1.4-3.5-3.3-3.5c-1.9,0-3.3,1.4-3.3,3.5s1.4,3.5,3.3,3.5C210.9,107.4,212.3,106,212.3,103.9z"/>
			<path class="st1" d="M226.4,104.5h-8c0.2,1.7,1.6,2.9,3.6,2.9c1.2,0,2.1-0.4,2.9-1.2l1,1.2c-0.9,1-2.3,1.6-3.9,1.6
				c-3.2,0-5.3-2.1-5.3-5.1c0-2.9,2.1-5,5-5s4.9,2.1,4.9,5.1C226.4,104.1,226.4,104.3,226.4,104.5z M218.4,103.2h6.3
				c-0.2-1.7-1.4-2.8-3.2-2.8C219.8,100.4,218.6,101.5,218.4,103.2z"/>
			<path class="st1" d="M227.7,107.8l0.7-1.4c0.8,0.6,2.2,1,3.5,1c1.7,0,2.4-0.5,2.4-1.3c0-2.2-6.3-0.3-6.3-4.2c0-1.8,1.6-3,4.1-3
				c1.3,0,2.7,0.3,3.6,0.9l-0.8,1.4c-0.9-0.6-1.9-0.8-2.9-0.8c-1.6,0-2.3,0.6-2.3,1.4c0,2.3,6.3,0.4,6.3,4.3c0,1.8-1.6,2.9-4.3,2.9
				C230.1,109,228.5,108.5,227.7,107.8z"/>
			<path class="st1" d="M247.6,95v13.9h-1.7v-1.6c-0.8,1.1-2.1,1.7-3.5,1.7c-2.9,0-5-2-5-5.1s2.1-5,5-5c1.4,0,2.6,0.5,3.5,1.6V95
				H247.6z M245.8,103.9c0-2.1-1.4-3.5-3.3-3.5c-1.9,0-3.3,1.4-3.3,3.5s1.4,3.5,3.3,3.5C244.4,107.4,245.8,106,245.8,103.9z"/>
			<path class="st1" d="M259.9,104.5h-8c0.2,1.7,1.6,2.9,3.6,2.9c1.2,0,2.1-0.4,2.9-1.2l1,1.2c-0.9,1-2.3,1.6-3.9,1.6
				c-3.2,0-5.3-2.1-5.3-5.1c0-2.9,2.1-5,5-5c2.9,0,4.9,2.1,4.9,5.1C260,104.1,260,104.3,259.9,104.5z M251.9,103.2h6.3
				c-0.2-1.7-1.4-2.8-3.2-2.8C253.4,100.4,252.1,101.5,251.9,103.2z"/>
			<path class="st1" d="M270.7,95.8v13.1h-1.8V97.4h-3v-1.6H270.7z"/>
			<path class="st1" d="M283.3,102.2c0,4.5-2.5,6.9-6.2,6.9c-1.2,0-2.4-0.2-3.2-0.8l0.7-1.5c0.7,0.4,1.6,0.6,2.5,0.6
				c2.7,0,4.3-1.7,4.3-4.9V102c-0.8,1.1-2.1,1.7-3.8,1.7c-2.6,0-4.5-1.5-4.5-4s2-4.1,4.6-4.1C281.3,95.6,283.3,98,283.3,102.2z
				 M281,99.7c0-1.3-1.1-2.5-3.1-2.5c-1.7,0-2.9,1-2.9,2.5s1.1,2.5,3,2.5C279.8,102.2,281,101.1,281,99.7z"/>
			<path class="st1" d="M294.5,95.8v1.3l-5.3,11.8h-2l5.2-11.4h-6v2.3h-1.8v-4C284.6,95.8,294.5,95.8,294.5,95.8z"/>
			<path class="st1" d="M305.9,104.9c0,2.5-2,4.1-4.6,4.1c-3.5,0-5.5-2.4-5.5-6.5c0-4.5,2.5-6.9,6.2-6.9c1.2,0,2.4,0.2,3.2,0.8
				l-0.7,1.5c-0.7-0.4-1.6-0.6-2.5-0.6c-2.7,0-4.3,1.7-4.3,4.9c0,0.1,0,0.3,0,0.5c0.7-1.1,2.1-1.7,3.8-1.7
				C304,100.9,305.9,102.5,305.9,104.9z M304.1,105c0-1.5-1.2-2.5-3-2.5s-3,1.1-3,2.5c0,1.3,1.1,2.5,3.1,2.5
				C302.9,107.5,304.1,106.5,304.1,105z"/>
		</g>
		<rect y="100.4" class="st2" width="195.1" height="4.9"/>
	</g>
</g>
</svg>
